<svg width="277" height="11" viewBox="0 0 277 11" fill="none" xmlns="http://www.w3.org/2000/svg">
<g clip-path="url(#clip0_1_141)">
<path d="M72.2616 10.942C72.2616 10.91 72.1948 10.8899 72.1133 10.8974C72.0317 10.9049 71.8632 10.8749 71.7388 10.8307C71.6076 10.784 71.4051 10.7503 71.2566 10.7503C71.0544 10.7503 71.038 10.7436 71.1787 10.7184C71.3156 10.6939 71.311 10.6843 71.1593 10.6767C71.0039 10.6689 71.0106 10.658 71.1912 10.6254C71.3659 10.5938 71.375 10.5817 71.2293 10.5744C71.1242 10.5692 71.0382 10.5549 71.0382 10.5427C71.0382 10.5305 71.1062 10.5268 71.1894 10.5344C71.276 10.5424 71.3017 10.5332 71.2495 10.5131C71.1994 10.4936 71.237 10.4778 71.3331 10.4778C71.4603 10.4778 71.4633 10.4655 71.344 10.4324C71.2125 10.3959 71.2278 10.387 71.4212 10.387C71.6157 10.387 71.6252 10.3812 71.4705 10.3566C71.2725 10.3251 70.8879 10.3532 70.938 10.3955C70.9511 10.4065 70.8811 10.4198 70.7825 10.4252C70.6647 10.4317 70.6337 10.4178 70.6919 10.3847C70.7407 10.357 70.7181 10.3399 70.6417 10.3465C70.5654 10.3532 70.3652 10.3511 70.197 10.3419C69.9546 10.3286 70.0257 10.3218 70.5411 10.3087C70.9464 10.2984 71.191 10.2801 71.191 10.2601C71.191 10.2425 71.3248 10.2281 71.4882 10.2281C71.6518 10.2281 71.8796 10.2081 71.9946 10.1837C72.2009 10.14 72.9799 10.0803 73.2323 10.0889C73.3037 10.0913 73.751 10.0788 74.2263 10.0609C74.7018 10.0431 75.521 10.0214 76.0468 10.0126C76.5726 10.0038 77.0412 9.98736 77.0881 9.97608C77.135 9.96481 77.3241 9.95537 77.5084 9.95509C77.6927 9.95482 78.2563 9.92438 78.761 9.88744C79.2656 9.85059 79.7949 9.82016 79.9371 9.81988C80.0793 9.81961 80.2383 9.80916 80.2902 9.7966C80.3422 9.78413 80.3071 9.77396 80.2122 9.77396C80.0003 9.77396 80.0766 9.67239 80.2902 9.67019C80.3744 9.66928 80.7449 9.6558 81.1136 9.64013C81.4824 9.62445 81.9521 9.61785 82.1573 9.62555C82.3625 9.63316 82.7491 9.6294 83.0161 9.61721C83.2832 9.60493 83.8857 9.58375 84.355 9.57018C85.6431 9.53269 86.3309 9.50143 86.3309 9.48035C86.3309 9.45844 78.4858 9.47375 76.5435 9.49942C75.5202 9.51289 75.1298 9.50922 74.7084 9.482C74.414 9.46303 74.1388 9.44598 74.0967 9.44414C74.0547 9.4424 73.8191 9.42856 73.5734 9.41353C73.3275 9.3984 73.0178 9.39235 72.8852 9.40005C72.7525 9.40775 70.717 9.41765 68.362 9.42214C66.0069 9.42663 63.7704 9.44047 63.3918 9.45294C63.0133 9.46532 61.879 9.48741 60.8713 9.50189C59.8634 9.51637 58.9071 9.53865 58.7462 9.55148C58.5853 9.56423 58.1175 9.56991 57.7067 9.56404C57.2959 9.55818 56.9226 9.5623 56.8773 9.57321C56.832 9.58412 56.7307 9.58714 56.6525 9.57999C56.5742 9.57275 56.5102 9.5777 56.5102 9.59099C56.5102 9.60419 56.4586 9.61299 56.3954 9.61052C56.141 9.60052 54.828 9.64178 54.828 9.65983C54.828 9.68193 53.6727 9.71877 53.236 9.71062C53.0752 9.70759 52.8145 9.72565 52.6566 9.75086C52.4985 9.77607 52.2515 9.79788 52.1075 9.79935C51.9637 9.80082 51.4329 9.80421 50.9284 9.80687C50.4237 9.80962 49.7355 9.82364 49.399 9.83803C49.0625 9.85243 48.5274 9.86993 48.2096 9.87699C47.8919 9.88405 47.6692 9.89872 47.7148 9.90972C47.8572 9.94391 47.5173 9.9528 44.8604 9.98488C44.7192 9.98663 44.6159 9.99772 44.6311 10.0095C44.6461 10.0214 44.5206 10.037 44.3524 10.0444C44.1843 10.0517 43.8729 10.0753 43.6605 10.0967C43.3828 10.1248 42.8036 10.1398 41.596 10.1503C40.6729 10.1584 39.7585 10.1639 39.5641 10.1626C39.3697 10.1613 38.9993 10.1765 38.741 10.1963C38.4742 10.2167 38.2304 10.2233 38.1768 10.2115C38.0452 10.1824 37.5068 10.1546 37.6247 10.1829C37.7491 10.2128 37.6002 10.2112 37.1931 10.1785C36.3712 10.1123 32.4807 10.1626 32.0748 10.2446C31.9492 10.27 31.9354 10.2871 32.0366 10.2922C32.1236 10.2965 32.1948 10.309 32.1948 10.32C32.1948 10.3311 32.0986 10.3347 31.9809 10.328C31.8633 10.3213 31.7215 10.3267 31.6659 10.34C31.5176 10.3757 32.4342 10.3705 32.9288 10.3329C33.1559 10.3156 33.6514 10.294 34.03 10.2848C34.4084 10.2757 34.8385 10.2648 34.9857 10.2607C35.1329 10.2567 35.2533 10.2668 35.2533 10.2831C35.2533 10.3042 35.4436 10.3107 35.9033 10.3053C36.4057 10.2995 36.4917 10.3031 36.2823 10.321C36.1334 10.3339 36.046 10.3527 36.088 10.3627C36.1789 10.3846 35.3239 10.4065 33.6686 10.4248C32.7391 10.4351 32.4358 10.431 32.3328 10.4069C32.2361 10.3842 32.1988 10.3835 32.1972 10.404C32.1936 10.4458 31.2744 10.4391 30.9452 10.3948C30.7913 10.3742 30.6656 10.367 30.6656 10.3787C30.6656 10.3918 30.1691 10.3941 29.4039 10.3846C28.71 10.376 27.626 10.3634 26.9953 10.3565C26.3644 10.3496 25.6222 10.3321 25.346 10.3175C25.0698 10.3031 24.6724 10.296 24.463 10.302C24.2536 10.3079 24.039 10.3023 23.9859 10.2896C23.9267 10.2754 23.9666 10.2735 24.0897 10.2848C24.2142 10.2963 24.2528 10.2943 24.1916 10.2796C24.0765 10.2519 23.3472 10.2269 22.4839 10.2209C21.9747 10.2174 21.8694 10.2086 21.8557 10.1679C21.8408 10.1243 21.9463 10.1172 22.8497 10.1018C23.4055 10.0921 24.0323 10.0865 24.2426 10.0893L24.6249 10.0941L24.2192 10.0614C23.5155 10.0046 22.8294 9.98067 21.4899 9.96609C20.775 9.9583 19.7427 9.93529 19.196 9.91485C17.9385 9.86801 13.5754 9.86434 13.3852 9.91008C13.3196 9.92585 13.1851 9.93126 13.0862 9.92218C12.8307 9.89872 10.0164 9.89083 10.1122 9.91384C10.2017 9.93538 10.1789 9.93575 8.1784 9.94473C6.76644 9.95106 6.17045 9.95885 4.05628 9.99836C3.09226 10.0164 2.52863 10.0061 1.97765 9.96032C1.74692 9.94116 1.79665 9.93025 2.35234 9.87818C2.80055 9.83611 3.3481 9.81145 4.17462 9.79596C5.5851 9.76947 6.93087 9.7361 7.90045 9.70356C8.48042 9.68412 8.5961 9.67212 8.53532 9.63765C8.4917 9.6129 8.3725 9.60052 8.2467 9.60768C8.12882 9.61437 8.03238 9.60859 8.03238 9.59475C8.03238 9.58091 8.1528 9.56945 8.29999 9.56927C8.5287 9.56899 8.53426 9.56569 8.33823 9.5469C8.19315 9.53297 8.17733 9.52472 8.2952 9.52453C8.39798 9.52435 8.44193 9.50886 8.39322 9.48997C8.33173 9.46623 8.48431 9.44396 8.89502 9.41692L9.48518 9.37796L7.99099 9.36421C7.16919 9.35669 6.08532 9.35156 5.58239 9.35284C5.07947 9.35413 4.66798 9.35385 4.66798 9.35229C4.66798 9.35073 4.80562 9.32589 4.97384 9.29711C5.14206 9.26832 5.2797 9.25164 5.2797 9.26008C5.2797 9.2686 5.43466 9.26044 5.62407 9.24193C5.81347 9.2235 6.4786 9.19673 7.10214 9.18234C7.72567 9.16795 8.50839 9.14195 8.8415 9.1245C9.17462 9.10705 9.69658 9.09241 10.0014 9.09196C10.8531 9.09072 12.9984 9.0079 12.378 9.00021C12.3009 8.99926 12.1002 8.99377 11.932 8.98803C11.7638 8.98228 11.5421 8.97485 11.4394 8.9715C11.0895 8.96011 11.0672 8.93801 11.3902 8.92279C11.5674 8.91444 11.8923 8.88285 12.1122 8.8526C12.332 8.82235 12.6655 8.7976 12.8532 8.7976C13.0409 8.7976 13.273 8.78356 13.3689 8.76639C13.5123 8.74074 13.3862 8.73252 12.6612 8.72026C12.176 8.71206 11.5726 8.70039 11.3203 8.69435C10.72 8.67995 8.33123 8.68203 8.16717 8.69709C7.94582 8.7174 6.19725 8.72698 6.19725 8.70788C6.19725 8.69785 6.30048 8.67691 6.42664 8.66136C6.5528 8.64582 6.65603 8.62243 6.65603 8.60939C6.65603 8.59635 6.61075 8.5924 6.55541 8.60063C6.50006 8.60884 6.36244 8.60418 6.24955 8.59028C6.13592 8.57627 6.04433 8.57467 6.04433 8.58669C6.04433 8.59863 5.9411 8.60839 5.81494 8.60839C5.44766 8.60839 5.54841 8.58407 6.05311 8.55091C6.62068 8.51361 6.53941 8.49796 5.6244 8.46837C4.7897 8.44138 4.63058 8.39909 5.22904 8.36327C5.84837 8.3262 8.75817 8.2781 10.4216 8.27743C11.2012 8.2771 12.0217 8.27005 12.2448 8.26173L12.6505 8.24662L12.2148 8.19369C11.9752 8.16459 11.6627 8.1404 11.5205 8.13995C11.158 8.13882 11.0478 8.1027 11.2423 8.04876C11.4476 7.9918 12.7778 7.88938 13.3123 7.88938C13.5377 7.88938 13.6679 7.87958 13.6142 7.86668C13.5622 7.85418 13.3935 7.84397 13.2392 7.84397C12.9801 7.84397 12.6921 7.78728 12.7489 7.74747C12.8065 7.70699 10.3802 7.75226 10.1771 7.79544C10.022 7.82842 6.11696 7.91461 5.73306 7.89353L5.36749 7.87344L5.7231 7.84519C5.91868 7.82965 7.18924 7.78945 8.54658 7.75585C11.0303 7.69437 11.6348 7.65097 10.0073 7.65097C9.5072 7.65097 9.04714 7.63801 8.89757 7.61969C8.68514 7.59368 8.39102 7.59295 7.15205 7.61542C4.87387 7.65673 3.54986 7.6851 3.23936 7.69927C3.03365 7.70865 2.97178 7.70192 3.00997 7.67431C3.06563 7.63407 3.53875 7.58687 4.28049 7.54753C4.91894 7.51368 4.52208 7.48383 3.70575 7.50431C3.35183 7.51318 2.75258 7.52765 2.37408 7.53645L1.68591 7.55244L2.25939 7.47084C2.5748 7.42596 2.83287 7.38559 2.83287 7.38113C2.83287 7.37667 2.40613 7.36585 1.88457 7.35708C0.651381 7.33638 -0.00846076 7.28504 8.19133e-05 7.2105C0.00456932 7.17118 0.993895 7.11844 1.91444 7.10844C2.29341 7.10432 3.15401 7.08471 3.82688 7.06488C4.49976 7.04504 5.53211 7.02421 6.12098 7.01859C6.70986 7.01297 7.60446 6.9976 8.10902 6.98445C11.2426 6.90276 11.9478 6.88265 12.0829 6.87115C12.1659 6.86408 11.9251 6.84714 11.5477 6.8335C11.1679 6.81977 10.8615 6.79538 10.8615 6.77888C10.8615 6.74067 12.4029 6.65767 13.8017 6.62055C14.4823 6.6025 14.9857 6.57563 15.1505 6.54859C15.2982 6.52438 15.81 6.49386 16.3166 6.47906C17.4656 6.4455 17.4346 6.41366 16.1859 6.34516C15.9184 6.33047 15.7303 6.30664 15.7682 6.29219C15.8544 6.25932 16.5633 6.20917 16.9416 6.20917C17.098 6.20917 17.1835 6.19895 17.1316 6.18646C17.0795 6.17398 16.525 6.16376 15.899 6.16376C14.8679 6.16376 14.4538 6.14055 14.9523 6.11068C15.3978 6.084 13.1659 6.09845 12.0636 6.12937C10.6909 6.1679 9.94396 6.15178 9.94396 6.08361C9.94396 6.05219 10.3434 6.01093 11.445 5.92857C12.4828 5.85098 12.8839 5.81039 12.7449 5.79706C12.4807 5.77173 12.7415 5.74582 13.7672 5.69553C15.2148 5.62453 16.3633 5.50553 16.2125 5.44213C16.1096 5.39884 16.6739 5.37521 19.0051 5.32526C20.1638 5.30042 21.3243 5.26437 21.5839 5.24515C21.8435 5.22592 22.393 5.20419 22.8051 5.19686C23.9414 5.17664 26.1158 5.09497 26.4558 5.05973C26.6217 5.04255 26.9658 5.02776 27.2205 5.02689C27.4751 5.02601 27.8211 5.01651 27.9893 5.00578C28.2329 4.99024 28.1705 4.98559 27.6835 4.98292C26.3799 4.9758 25.6883 4.95671 25.5155 4.92311C25.3975 4.90018 25.2132 4.89312 24.9802 4.90263C24.6745 4.9151 24.6627 4.91362 24.8953 4.89197C25.044 4.87814 25.2849 4.86974 25.4305 4.87329C25.5763 4.87685 25.7879 4.87115 25.9012 4.86062C26.0229 4.84929 26.2609 4.85372 26.4841 4.87145C26.778 4.89481 26.925 4.8955 27.1506 4.8746C27.3337 4.85763 27.4738 4.85594 27.5324 4.87001C27.5834 4.88224 28.0166 4.89262 28.4953 4.89306C28.9741 4.8935 29.5377 4.90847 29.748 4.92631C30.2061 4.96519 30.3597 4.96804 30.3597 4.93766C30.3597 4.92518 30.2523 4.91496 30.1212 4.91496C29.9901 4.91496 29.9206 4.9059 29.9666 4.89483C30.0127 4.88376 29.9062 4.86911 29.7301 4.86228C29.554 4.85544 29.4398 4.8364 29.4764 4.81996C29.5438 4.78963 30.2288 4.77186 32.3478 4.74547C34.2621 4.72163 34.7945 4.7088 34.7945 4.68651C34.7945 4.67479 34.6913 4.6652 34.5652 4.6652C34.4377 4.6652 34.3358 4.64502 34.3358 4.61979C34.3358 4.58649 34.4377 4.57438 34.7181 4.57438C35.158 4.57438 35.233 4.53941 34.8269 4.52364C34.6765 4.5178 33.9023 4.51848 33.1065 4.52514C30.7887 4.54457 29.8615 4.53811 29.3766 4.49915C29.1304 4.47936 28.8847 4.46722 28.8307 4.47216C28.7769 4.47711 28.7612 4.45239 28.7961 4.41723C28.8718 4.34053 28.6568 4.32856 27.0865 4.32215C26.1468 4.31831 26.0738 4.31486 26.4004 4.28973C26.9377 4.24838 28.9086 4.18906 30.084 4.17884C30.6846 4.17362 31.252 4.15497 31.456 4.13375C31.8905 4.08857 32.1523 4.088 32.446 4.13162C32.5781 4.15124 32.9464 4.16546 33.3145 4.16519C34.4479 4.16432 38.6768 4.10046 39.2509 4.07554C39.7871 4.05227 39.8034 4.04851 39.6903 3.97404C39.619 3.92712 39.635 3.88747 39.7311 3.87322C39.8401 3.85702 39.8354 3.84007 39.716 3.8187C39.3506 3.75334 39.8153 3.73981 42.0471 3.75083C43.7811 3.75939 44.3222 3.75469 44.674 3.72806C45.0463 3.69987 46.7247 3.66098 47.8698 3.65403C48.038 3.65301 48.5197 3.64303 48.9403 3.63187L49.7049 3.61157L49.0167 3.59506C48.6383 3.58597 47.5027 3.58375 46.4934 3.59012C45.4842 3.59649 44.0389 3.60034 43.282 3.59868C42.525 3.59701 41.0454 3.6123 39.9941 3.63264C37.9138 3.67289 35.7685 3.70104 34.8448 3.70022C34.5228 3.69992 34.2161 3.70861 34.1632 3.71951C34.1104 3.73042 33.8523 3.74065 33.5898 3.74225C33.3272 3.74384 33.1123 3.7536 33.1123 3.76393C33.1123 3.77427 32.9575 3.77627 32.7682 3.76837C32.499 3.75712 32.4741 3.75918 32.6536 3.77784C32.8513 3.7984 32.8461 3.80174 32.6154 3.80204C32.4682 3.80224 32.3478 3.81377 32.3478 3.8277C32.3478 3.84325 32.2023 3.83887 31.9708 3.81635C31.5522 3.77562 31.3686 3.76922 31.4959 3.7998C31.5419 3.81087 31.4428 3.82524 31.2755 3.83174C31.1015 3.8385 30.9714 3.83232 30.9714 3.81728C30.9713 3.80209 30.7298 3.79103 30.3978 3.79103C30.0334 3.79103 29.8375 3.80098 29.8602 3.81833C29.8849 3.83711 29.7201 3.84228 29.3316 3.83489C28.695 3.82279 28.067 3.76989 28.0634 3.72807C28.0618 3.71019 28.008 3.71241 27.9128 3.73427C27.7978 3.7607 27.764 3.75402 27.7623 3.70439C27.7592 3.6225 28.0112 3.55262 28.3095 3.55262C28.4377 3.55262 28.5001 3.5424 28.448 3.52992C28.3961 3.51743 28.478 3.50643 28.6302 3.50547C29.1342 3.50231 29.4543 3.48855 29.7949 3.4554C30.1005 3.42568 30.8184 3.43712 30.8184 3.47171C30.8184 3.47796 30.7263 3.47782 30.6136 3.47138C30.5009 3.46496 30.3117 3.47746 30.193 3.49916C30.0071 3.53315 30.0074 3.53592 30.1947 3.51918C30.3617 3.50422 30.387 3.50935 30.3042 3.54138C30.2398 3.56629 30.2755 3.59046 30.3929 3.60152C30.6855 3.62908 30.9319 3.6239 30.6657 3.59578C30.4931 3.57754 30.5817 3.57455 31.0236 3.58368C31.3485 3.5904 31.7359 3.58424 31.8906 3.5699C32.1021 3.55028 32.2245 3.55068 32.3941 3.57157C32.5747 3.59383 32.641 3.59136 32.7366 3.55886C32.8019 3.53668 32.8443 3.51088 32.831 3.50151C32.8176 3.49214 32.9042 3.48448 33.0234 3.48448C33.1424 3.48448 33.2662 3.47279 33.2983 3.45851C33.3303 3.44423 33.5584 3.42935 33.8052 3.42545C34.0519 3.42153 34.3307 3.40273 34.4247 3.38365C34.5187 3.36456 34.6513 3.35646 34.7195 3.36563C34.7876 3.3748 34.8002 3.36442 34.7474 3.34257C34.6292 3.29366 34.9217 3.28908 35.0477 3.33788C35.1279 3.36889 35.1714 3.36848 35.4254 3.33436C35.6964 3.29793 35.7124 3.29819 35.7146 3.33905C35.7166 3.37529 35.741 3.37678 35.8652 3.34824C36.0862 3.29747 36.0546 3.28642 35.6453 3.27116C35.3857 3.26149 35.2799 3.24275 35.2968 3.20947C35.3237 3.15643 35.8565 3.1168 36.4702 3.12215C37.0424 3.12714 37.5474 3.09792 37.5474 3.05982C37.5474 3.0353 37.6994 3.02811 38.1209 3.03268C38.7372 3.03936 39.7742 3.01381 40.1472 2.98273C40.3323 2.96731 40.3177 2.96329 40.0707 2.96187C39.9025 2.96091 39.4208 2.95532 39.0002 2.94946C37.6998 2.93136 35.9701 2.93193 35.3461 2.95067C34.9178 2.96353 34.7804 2.96136 34.857 2.94296C34.9228 2.92716 34.8814 2.92204 34.7488 2.9296C34.623 2.93677 34.42 2.91598 34.2587 2.87942C34.0616 2.83476 34.0357 2.8144 34.1677 2.80786C34.2916 2.80173 34.2616 2.78819 34.0765 2.76662C33.8251 2.73735 33.8413 2.73555 34.2594 2.74634C34.5118 2.75285 34.6322 2.75215 34.527 2.74479C34.1397 2.71769 34.3531 2.68978 34.9476 2.68978C35.3338 2.68978 35.5602 2.70025 35.5616 2.71817C35.5634 2.73906 35.5987 2.73841 35.6955 2.71574C35.7781 2.69639 35.8627 2.69353 35.9231 2.70804C36.0258 2.73271 36.2204 2.7308 36.6984 2.70041C36.8624 2.69 37.2226 2.68078 37.4991 2.67995C38.1329 2.67804 38.3387 2.62168 37.7119 2.62168C37.4639 2.62168 37.236 2.60691 37.1862 2.58761C37.1268 2.56463 37.1936 2.55356 37.3916 2.55356C37.5531 2.55356 37.7401 2.54078 37.8073 2.52518C37.9828 2.48447 38.6059 2.43626 38.7664 2.45098C38.8412 2.45785 38.9458 2.4531 38.9987 2.4404C39.0514 2.42771 39.2846 2.41732 39.5167 2.41732C39.7487 2.41732 40.3124 2.40073 40.7693 2.38046C41.4904 2.34844 41.5552 2.34108 41.2605 2.32468C41.074 2.31429 39.797 2.30717 38.423 2.30886C37.049 2.31057 35.8348 2.30369 35.7249 2.29361C35.6111 2.28317 35.48 2.28609 35.4204 2.30041C35.2976 2.32993 30.5437 2.3523 30.4255 2.32392C30.384 2.31394 30.2432 2.31186 30.1127 2.3193C29.952 2.32846 29.9309 2.33791 30.0471 2.34858C30.1417 2.35725 30.0098 2.36434 29.7541 2.36434C29.4985 2.36434 29.2893 2.35458 29.2893 2.34264C29.2893 2.33071 29.1844 2.33387 29.0563 2.34966C28.9281 2.36546 28.7742 2.37111 28.7145 2.36224C28.6546 2.35336 28.7767 2.32678 28.9858 2.30315L29.3658 2.2602L28.9835 2.27111C28.6484 2.28067 28.639 2.27936 28.907 2.26045C29.348 2.22933 30.0729 2.23255 30.4977 2.26751C30.9119 2.30158 31.4304 2.29036 31.4304 2.24732C31.4304 2.22749 31.7323 2.21858 32.4244 2.218C33.048 2.21748 33.4184 2.22646 33.4184 2.24212C33.4184 2.25583 33.5043 2.25032 33.6095 2.22986C33.7476 2.20298 34.1616 2.18861 35.1005 2.17808C35.8155 2.17006 36.8348 2.1491 37.3657 2.13148C37.8967 2.11386 38.5504 2.09846 38.8185 2.09727C39.0866 2.09606 39.6501 2.08114 40.0706 2.06409C40.7876 2.03501 40.7067 2.03385 38.7707 2.04547C37.6353 2.05228 36.603 2.05802 36.4768 2.05823C36.3507 2.05843 34.768 2.08255 32.9596 2.11182C31.1512 2.1411 29.1797 2.16816 28.5784 2.17198C27.9771 2.17579 27.5166 2.18658 27.5551 2.19594C27.5937 2.20531 27.3286 2.21302 26.9662 2.21306C26.6038 2.21306 25.6879 2.22796 24.9309 2.24604C23.6328 2.27707 20.5793 2.30907 20.9941 2.28729C21.0996 2.28175 21.1472 2.26786 21.0996 2.25645C21.0521 2.24503 21.2065 2.23519 21.4429 2.23459C21.6791 2.23401 22.1132 2.21411 22.4076 2.19041C22.7021 2.16672 23.0805 2.13779 23.2487 2.12615C23.8017 2.08787 32.8211 1.86633 34.9476 1.8388C35.5784 1.83063 37.4021 1.80371 39.0002 1.77898C40.5983 1.75423 42.7076 1.72408 43.6875 1.71197C44.6674 1.69985 45.8002 1.67514 46.2049 1.65706C46.7365 1.6333 46.9701 1.63121 47.0462 1.64951C47.1427 1.67272 48.7516 1.66636 50.699 1.63509C50.9934 1.63036 51.9225 1.6201 52.7635 1.6123C54.2728 1.5983 56.5722 1.5512 57.8592 1.50793C58.2226 1.49571 58.5845 1.49162 58.6631 1.49884C58.7419 1.50607 59.8074 1.48946 61.0309 1.46195C62.8411 1.42123 63.3207 1.41708 63.6054 1.43972C63.8917 1.46247 64.2585 1.45866 65.6235 1.41872C67.8956 1.35223 70.8607 1.2658 72.3382 1.22297C73.0111 1.20347 73.9886 1.17302 74.5106 1.15531C75.0326 1.1376 75.6863 1.12316 75.9634 1.12322C76.2404 1.12322 76.7769 1.10862 77.1554 1.09063C77.7933 1.06033 79.0993 1.02668 82.5843 0.950767C84.3747 0.911774 84.7353 0.902772 86.5603 0.85155C87.4015 0.827944 88.7779 0.791768 89.6189 0.771156C90.46 0.750544 91.3546 0.728612 91.607 0.722419C93.3926 0.678605 93.7326 0.67942 94.0878 0.728364C94.2794 0.754773 94.436 0.78798 94.436 0.802158C94.436 0.816336 94.4878 0.826725 94.5508 0.825247C94.6138 0.823783 94.8227 0.823783 95.0149 0.825247C95.3072 0.827492 95.3393 0.834883 95.2115 0.87036C95.0242 0.922295 95.174 0.950318 95.4543 0.915781C95.7696 0.876927 95.6978 0.911875 95.335 0.973821C95.1447 1.00632 94.7626 1.03545 94.4109 1.04428C93.8973 1.05716 93.8387 1.06425 94.0031 1.09367C94.2499 1.13782 94.0414 1.14056 103.841 0.964507C104.514 0.952417 105.718 0.937631 106.517 0.931645C107.316 0.92565 108.762 0.909998 109.729 0.896853C110.696 0.88371 111.969 0.868907 112.558 0.863959C113.147 0.859013 113.901 0.844379 114.233 0.831441C114.566 0.818505 115.885 0.807289 117.165 0.806522C118.445 0.805757 119.584 0.800573 119.696 0.795007C119.971 0.781272 123.554 0.753399 124.407 0.758361C124.784 0.760562 125.198 0.776489 125.326 0.793771C125.615 0.832497 126.349 0.836378 129.762 0.817234C131.331 0.80843 132.772 0.788418 133.246 0.768854C133.862 0.743326 134.886 0.736338 137.604 0.739113C139.557 0.74112 142.806 0.735029 144.825 0.725609C148.917 0.706513 148.697 0.706296 152.931 0.733579C155.671 0.751243 157.252 0.751976 159.659 0.736701C160.079 0.734032 160.303 0.727174 160.157 0.721463C160.009 0.715753 159.889 0.700398 159.889 0.687345C159.889 0.671688 160.318 0.668112 161.15 0.676837C161.844 0.684113 163.926 0.700419 165.777 0.713075C167.627 0.725732 170.001 0.746569 171.053 0.75938C175.276 0.810849 176.887 0.828988 179.081 0.84978C184.567 0.901787 187.459 0.922506 190.474 0.931416C191.862 0.935513 193.582 0.945826 194.298 0.954333C195.012 0.962839 196.079 0.968889 196.667 0.967771C197.256 0.966662 198.426 0.975783 199.267 0.988066C200.108 1.00035 202.833 1.0149 205.321 1.0204C207.808 1.0259 210.149 1.04035 210.52 1.05253C210.892 1.0647 211.736 1.08019 212.397 1.08696C213.057 1.09372 213.815 1.10451 214.079 1.11094C214.984 1.1329 216.395 1.14783 218.46 1.15727C220.277 1.16559 222.043 1.18553 224.653 1.22723C225.074 1.23395 225.658 1.2423 225.953 1.24579C226.248 1.24927 227.004 1.25867 227.636 1.2667C228.266 1.27471 229.333 1.28752 230.005 1.29516C230.679 1.30279 231.263 1.3122 231.305 1.31605C231.347 1.31989 231.773 1.32921 232.252 1.33677C232.73 1.34431 233.223 1.35624 233.346 1.36326C233.469 1.37027 234.178 1.37906 234.923 1.38278C236.966 1.39299 236.963 1.39293 236.963 1.42963C236.963 1.44836 237.037 1.46369 237.126 1.46369C237.215 1.46369 237.238 1.45173 237.177 1.43713C237.102 1.41902 237.151 1.41541 237.333 1.42577C237.48 1.43414 237.752 1.44098 237.938 1.44098C238.165 1.44098 238.282 1.45575 238.298 1.48639C238.325 1.54068 238.243 1.54328 237.935 1.49775C237.616 1.45022 237.258 1.45379 237.365 1.50343C237.418 1.52787 237.402 1.5334 237.322 1.51779C237.234 1.50049 236.803 1.49725 235.97 1.5076C234.535 1.52541 233.451 1.5205 231.459 1.48718C230.66 1.47382 229.627 1.4574 229.164 1.45068C228.702 1.44397 228.243 1.43457 228.145 1.42981C228.047 1.42504 227.927 1.43665 227.877 1.45558C227.811 1.48109 227.666 1.48603 227.318 1.47466C226.77 1.45679 226.417 1.45 224.96 1.42916C224.37 1.42074 223.848 1.4101 223.797 1.40551C223.69 1.39572 221.644 1.39411 218.841 1.40161C217.064 1.40637 215.81 1.39337 214.874 1.36048C214.347 1.34195 210.66 1.33393 210.66 1.35132C210.66 1.36027 211.125 1.37496 211.693 1.38398C212.261 1.393 212.863 1.40442 213.031 1.40935C214.211 1.44391 217.371 1.48263 219.913 1.49368C220.501 1.49625 221.056 1.50526 221.145 1.51371C221.293 1.52777 225.975 1.58198 226.226 1.57255C226.286 1.5703 226.852 1.57561 227.482 1.58435C228.458 1.59785 230.948 1.62503 231.573 1.62899C231.799 1.63042 231.826 1.65973 231.618 1.67876C231.469 1.6924 230.317 1.69556 229.273 1.68516C228.954 1.68199 228.638 1.66594 228.569 1.64951C228.478 1.62728 228.215 1.62356 227.544 1.63501C227.047 1.64347 226.595 1.65445 226.539 1.65942C226.483 1.66439 226.332 1.65296 226.205 1.63401C226.076 1.61507 225.937 1.60833 225.892 1.61902C225.806 1.63977 222.718 1.63093 221.824 1.60738C221.53 1.59962 221.01 1.59117 220.671 1.5886C220.331 1.58603 219.901 1.57183 219.716 1.55706C219.445 1.53559 219.378 1.53629 219.378 1.56053C219.378 1.57837 219.173 1.59329 218.881 1.59681C217.671 1.61129 215.979 1.60991 214.637 1.59336C213.671 1.58145 213.26 1.58294 213.408 1.59781C214.012 1.65773 212.881 1.68729 211.12 1.65764C209.558 1.63135 209.279 1.62996 208.604 1.64516C208.256 1.65301 207.768 1.65134 207.519 1.64144C206.864 1.61539 203.459 1.56925 201.943 1.56588C201.229 1.56429 200.196 1.55601 199.65 1.54747C199.103 1.53893 198.002 1.5267 197.202 1.52029C196.403 1.51388 194.511 1.49362 192.998 1.47526C191.483 1.45689 189.232 1.43501 187.993 1.42662C185.975 1.41294 185.731 1.41528 185.643 1.44917C185.561 1.48141 185.295 1.48684 183.843 1.48602C182.906 1.48549 181.83 1.49333 181.452 1.50346L180.763 1.52189L181.91 1.54721C182.54 1.56113 183.298 1.57224 183.593 1.5719C183.887 1.57153 185.091 1.5871 186.269 1.60644C187.446 1.62577 189.683 1.65301 191.239 1.66695C192.795 1.68089 194.221 1.69718 194.408 1.70317C194.595 1.70914 196.144 1.72398 197.849 1.73613C200.914 1.75798 203.061 1.77581 204.697 1.79299C205.159 1.79785 206.746 1.81217 208.223 1.82482C209.7 1.83747 211.008 1.85236 211.129 1.85793C211.249 1.86349 211.486 1.87577 211.655 1.88521C211.822 1.89466 212.225 1.90522 212.548 1.90868C212.872 1.91216 213.216 1.93119 213.313 1.95099C213.454 1.97958 213.853 1.9882 215.249 1.99286C216.216 1.99609 217.075 2.00502 217.16 2.01269C217.244 2.02037 217.829 2.03264 218.46 2.03998C221.475 2.075 224.489 2.10346 225.877 2.10998C226.718 2.11393 228.507 2.13502 229.853 2.15683C231.198 2.17863 232.919 2.19986 233.676 2.20401C238.915 2.2327 243.099 2.26882 245.299 2.30435C246.055 2.31659 247.383 2.33317 248.247 2.3412C249.112 2.34923 249.855 2.36454 249.9 2.37521C249.944 2.38589 249.752 2.39545 249.474 2.39647C249.196 2.3975 248.774 2.4004 248.536 2.40297C248.299 2.40553 248.075 2.40044 248.038 2.39165C248.001 2.38287 247.718 2.3861 247.407 2.39884C247.092 2.41177 246.399 2.41538 245.841 2.40702C245.29 2.39877 242.362 2.38803 239.334 2.38314C236.306 2.37825 232.693 2.36765 231.305 2.35959C228.831 2.34522 228.131 2.35401 229.754 2.37905C230.204 2.386 230.605 2.39663 230.646 2.40267C230.755 2.41886 230.196 2.45892 229.732 2.46814C229.192 2.4789 229.021 2.50766 229.483 2.51012C229.686 2.51121 230.747 2.52161 231.84 2.53325C232.934 2.5449 235.084 2.56045 236.62 2.56783C239.142 2.57996 239.411 2.58506 239.411 2.62104C239.411 2.67098 240.027 2.68279 243.737 2.70402C245.233 2.71259 246.493 2.72821 246.536 2.73875C246.581 2.74928 246.918 2.75791 247.286 2.75791C248.543 2.75791 248.191 2.82061 246.647 2.87169C246.211 2.88611 245.627 2.89603 245.347 2.89372C243.484 2.8784 243.973 2.9231 246.062 2.9592C246.904 2.97373 248.074 2.99057 248.662 2.99661C249.252 3.00266 250.318 3.0178 251.033 3.03024C251.749 3.04269 253.193 3.05961 254.244 3.06785C255.539 3.07799 256.206 3.09242 256.309 3.11257C256.394 3.12906 256.939 3.14892 257.533 3.15711C258.121 3.16524 258.672 3.18437 258.756 3.19962C258.84 3.21487 259.412 3.23423 260.026 3.24265C260.641 3.25109 261.297 3.27299 261.485 3.29132C261.701 3.31234 262.362 3.32836 263.275 3.33466C265.239 3.34824 266.779 3.37383 266.864 3.39433C266.953 3.41587 265.614 3.44664 265.409 3.42776C265.324 3.42003 265.255 3.42337 265.255 3.43521C265.255 3.44704 265.496 3.46344 265.79 3.47164C266.371 3.48783 266.482 3.51607 266.059 3.54044C265.558 3.56921 266.258 3.61476 267.83 3.65586C269.15 3.69038 269.985 3.73304 269.376 3.73494C268.804 3.73672 269.687 3.77674 270.606 3.7907C271.151 3.79899 271.679 3.81563 271.775 3.82767C271.873 3.83972 272.389 3.85997 272.921 3.8727C274.399 3.90803 274.382 3.93643 272.876 3.95403C272.311 3.9606 271.797 3.98008 271.642 4.00066C271.424 4.02955 271.159 4.033 270.189 4.01956C268.217 3.99221 267.826 3.99754 267.53 4.05578C267.385 4.08429 267.297 4.11477 267.333 4.12351C267.37 4.13224 267.863 4.14653 268.43 4.15528C268.998 4.16402 269.53 4.17919 269.614 4.18899C269.698 4.19879 270.093 4.21405 270.493 4.22287C271.59 4.24711 271.365 4.27918 270.098 4.27918C269.482 4.27918 268.924 4.28685 268.86 4.29622C268.797 4.30557 268.155 4.31324 267.435 4.31324C266.525 4.31324 266.106 4.32188 266.06 4.34163C266.015 4.36107 266.179 4.37004 266.581 4.37013C266.904 4.37017 267.408 4.37963 267.701 4.39109C267.996 4.40254 268.82 4.41838 269.531 4.42628C270.244 4.43418 270.903 4.45021 270.999 4.46189C271.094 4.47358 271.211 4.47718 271.261 4.46991C271.309 4.46264 271.51 4.46517 271.705 4.47554C271.98 4.49011 271.817 4.4977 270.99 4.50887C270.014 4.52205 268.902 4.55518 268.314 4.58859C267.94 4.60979 268.521 4.63309 270.263 4.66681C271.126 4.6835 271.831 4.70322 271.831 4.71062C271.831 4.71803 272.278 4.71986 272.825 4.71469C273.624 4.70714 273.82 4.71181 273.82 4.73848C273.82 4.77964 273.335 4.84694 273.042 4.84647C272.863 4.84619 272.865 4.84232 273.055 4.82411C273.249 4.80539 273.243 4.80205 273.011 4.80176C272.862 4.80156 272.698 4.81727 272.648 4.83665C272.571 4.86667 272.294 4.87012 270.779 4.86001C268.882 4.84733 268.416 4.86236 268.765 4.9249C269.351 5.02967 271.738 5.142 273.38 5.142C274.371 5.142 274.889 5.16953 274.889 5.22226C274.889 5.24866 274.644 5.25541 273.704 5.25498C273.052 5.25469 272.244 5.24367 271.907 5.23053C271.571 5.21737 269.986 5.20198 268.385 5.19633C265.554 5.18632 265.473 5.18729 265.451 5.23168C265.428 5.27535 265.615 5.3068 265.943 5.31468C266.028 5.3167 266.687 5.33489 267.409 5.35509C269.773 5.42122 271.872 5.4615 274.02 5.48197C276.01 5.50094 276.689 5.52694 276.483 5.57634C276.436 5.58762 276.332 5.59081 276.252 5.58344C276.172 5.57606 276.125 5.58355 276.147 5.60009C276.17 5.61672 276.07 5.62877 275.924 5.62705C275.778 5.62534 275.69 5.63188 275.731 5.64159C275.771 5.6513 275.571 5.66575 275.285 5.6737C274.668 5.69089 274.522 5.73182 274.837 5.79882C275.006 5.83453 275.024 5.85581 274.903 5.87731C274.707 5.91256 274.836 5.93669 275.221 5.93669C275.375 5.93669 275.501 5.94096 275.501 5.94618C275.501 5.9514 275.546 5.97336 275.602 5.99495C275.696 6.03103 275.593 6.03301 274.341 6.01917C273.591 6.0109 272.719 5.99804 272.404 5.99063C271.948 5.97988 271.831 5.98436 271.831 6.01255C271.831 6.03202 271.721 6.05718 271.585 6.06844C271.234 6.09753 271.445 6.22836 271.883 6.25465C272.197 6.27345 272.198 6.27454 271.907 6.27743C271.601 6.28046 271.601 6.28046 271.907 6.29998C272.206 6.31901 271.789 6.32715 270.225 6.33282C269.573 6.33518 269.079 6.36575 269.079 6.40368C269.079 6.42395 268.92 6.43633 268.658 6.43652C268.427 6.43672 268.08 6.44305 267.89 6.45066C267.563 6.46363 267.559 6.46639 267.813 6.49503C267.962 6.51184 268.272 6.52592 268.502 6.52631C268.733 6.52672 269.375 6.56279 269.93 6.6065C270.489 6.65058 271.161 6.68597 271.438 6.68597C272.366 6.68597 273.811 6.71488 273.74 6.73198C273.701 6.74132 273.787 6.74756 273.929 6.74584C274.072 6.74414 274.214 6.76034 274.244 6.78186C274.314 6.83182 273.41 6.91795 272.945 6.90577C272.759 6.90091 272.581 6.90807 272.55 6.9217C272.479 6.95381 270.694 6.96289 269.98 6.93477C269.677 6.92283 268.111 6.91029 266.501 6.9069C263.778 6.90118 262.976 6.91278 263.994 6.94311C264.225 6.95 264.723 6.96604 265.102 6.97876C265.48 6.99147 266.083 7.00232 266.44 7.00286C266.798 7.00341 267.09 7.01407 267.09 7.02655C267.09 7.03904 267.198 7.04926 267.329 7.04926C267.461 7.04926 267.71 7.06049 267.883 7.0742C268.193 7.09888 268.193 7.09944 267.835 7.12597C267.207 7.1724 267.402 7.21621 268.456 7.26599C268.998 7.29151 269.471 7.32728 269.511 7.34545C269.55 7.36362 269.644 7.38441 269.718 7.39166C269.952 7.41444 269.672 7.4845 269.407 7.46941C269.273 7.46179 269.206 7.46182 269.258 7.46949C269.31 7.47716 269.178 7.50918 268.966 7.54066C268.687 7.58206 268.4 7.59893 267.926 7.60165C267.567 7.60372 267.3 7.61209 267.333 7.62026C267.367 7.62843 266.737 7.6301 265.931 7.62398C264.761 7.61509 264.417 7.61976 264.212 7.64728C263.926 7.6855 262.424 7.70126 261.642 7.67424C261.342 7.66393 261.125 7.66711 261.059 7.68274C261.001 7.69648 260.793 7.70773 260.595 7.70773C260.135 7.70773 259.75 7.72951 259.75 7.75557C259.75 7.76672 259.85 7.77585 259.972 7.77585C260.094 7.77585 260.252 7.79134 260.323 7.81028C260.404 7.83163 261.001 7.86055 261.898 7.88645C263.665 7.93749 264.966 8.01553 264.843 8.06311C264.796 8.08138 264.658 8.09076 264.539 8.08394C264.419 8.07712 264.36 8.08077 264.407 8.09206C264.454 8.10335 264.313 8.14442 264.092 8.18332C263.797 8.2354 263.61 8.25025 263.384 8.23958C263.212 8.23155 263.114 8.23432 263.161 8.24577C263.21 8.25714 263.009 8.26745 262.715 8.26869C262.423 8.26992 261.701 8.2885 261.111 8.30998L260.037 8.34904L260.379 8.40303C260.567 8.43272 260.784 8.45701 260.862 8.45701C260.94 8.45701 261.239 8.47365 261.529 8.49399C262.032 8.52945 262.043 8.53313 261.821 8.58363C261.675 8.61681 261.646 8.64151 261.742 8.65039C261.826 8.65816 261.851 8.6751 261.798 8.68806C261.735 8.70326 261.652 8.70069 261.566 8.68082C261.479 8.66082 261.391 8.65815 261.318 8.67318C261.254 8.68592 260.996 8.71113 260.743 8.7292L260.285 8.76205L260.769 8.76976C261.294 8.77812 261.573 8.83638 261.193 8.85802C261.065 8.86534 260.921 8.86568 260.876 8.85878C260.829 8.85187 260.562 8.86533 260.282 8.88868C260.001 8.91203 259.511 8.93841 259.192 8.94732C258.872 8.95622 258.517 8.97727 258.404 8.99408C258.136 9.03391 258.032 9.03303 256.61 8.97907C255.336 8.93064 254.976 8.93516 254.452 9.00617C254.158 9.04622 254.038 9.0482 253.239 9.02626C252.191 8.9975 250.216 8.99381 250.329 9.02083C250.372 9.03122 250.91 9.05243 251.524 9.06796C253.087 9.10754 253.262 9.11604 253.005 9.1396C252.56 9.18042 254.553 9.27685 256.501 9.30866C257.026 9.31728 257.489 9.33231 257.53 9.34212C257.571 9.35192 257.46 9.38713 257.283 9.4204C256.987 9.47632 256.982 9.48402 257.21 9.52142C257.344 9.5436 257.456 9.56743 257.456 9.57422C257.456 9.60227 254.867 9.56193 254.015 9.52059C252.79 9.4611 250.313 9.41774 250.083 9.45175C249.962 9.46972 249.961 9.48521 250.079 9.50638C250.239 9.53498 250.484 9.54727 252.524 9.62839C253.16 9.65369 253.479 9.6778 253.479 9.70063C253.479 9.72932 253.299 9.73234 252.344 9.71951C251.618 9.7097 251.175 9.71272 251.112 9.72776C251.059 9.74068 251.099 9.75123 251.202 9.75123C251.305 9.75123 251.355 9.75654 251.31 9.76296C251.209 9.77818 249.042 9.71071 248.827 9.68559C248.657 9.66579 246.425 9.61473 245.948 9.61977C245.801 9.62133 245.68 9.63536 245.68 9.65094C245.68 9.66662 245.644 9.6932 245.601 9.70998C245.526 9.73913 247.394 9.79788 250.613 9.86773C251.095 9.87818 251.741 9.90229 252.046 9.92118C252.35 9.94015 252.815 9.95564 253.078 9.95573C253.77 9.95592 254.765 10.0008 254.605 10.0248C254.53 10.0358 253.599 10.0478 252.535 10.0513C251.472 10.0548 250.613 10.0595 250.627 10.0616C250.641 10.0637 250.991 10.0853 251.407 10.1095C252.131 10.1517 252.149 10.1547 251.817 10.1811C251.558 10.2016 251.282 10.2024 250.709 10.1842C249.779 10.1546 249.657 10.1542 249.657 10.1809C249.657 10.1923 249.862 10.2085 250.113 10.2166C250.949 10.2439 250.769 10.2735 249.765 10.2735C249.182 10.2735 248.591 10.2878 248.305 10.3091C248.014 10.3306 247.689 10.3384 247.486 10.3288C247.048 10.3082 239.869 10.3004 239.953 10.3206C240.131 10.3633 238.125 10.3631 236.413 10.3201C232.946 10.2333 229.996 10.1839 228.094 10.1809C227.042 10.1792 225.46 10.1638 224.577 10.1466C223.693 10.1294 222.12 10.1049 221.08 10.092C220.041 10.0791 219.145 10.0646 219.092 10.0599C219.038 10.0551 218.478 10.0447 217.848 10.0367C217.218 10.0287 216.46 10.0178 216.165 10.0126C215.553 10.0016 212.763 9.97847 210.737 9.96756C209.271 9.95977 207.045 9.93887 205.537 9.91879C205.032 9.9121 203.072 9.90229 201.178 9.89697C199.286 9.89166 197.05 9.87892 196.209 9.86865C195.368 9.85838 193.041 9.85105 191.04 9.85233C188.012 9.85417 187.375 9.86022 187.255 9.88799C187.131 9.91641 187.088 9.91668 186.972 9.88983C186.881 9.86874 186.684 9.8626 186.383 9.87158C186.134 9.87892 185.856 9.87378 185.763 9.86013C185.671 9.84647 185.369 9.83308 185.091 9.83052C184.814 9.82786 184.449 9.81961 184.28 9.81227C183.364 9.77194 182.41 9.76021 182.025 9.78459C181.716 9.80412 180.945 9.78102 181.051 9.75544C181.091 9.746 180.354 9.73555 179.413 9.73216C176.882 9.72318 176.619 9.71905 176.333 9.68376C176.101 9.65507 176.077 9.65635 176.124 9.69567C176.158 9.72565 176.101 9.73729 175.946 9.73179C175.82 9.7273 175.562 9.72354 175.373 9.72327C175.183 9.72299 175.028 9.71492 175.028 9.70539C175.028 9.69577 174.918 9.68165 174.782 9.67386C174.603 9.66368 174.561 9.66955 174.627 9.6954C174.69 9.71978 174.66 9.72528 174.529 9.713C174.425 9.70319 173.687 9.69192 172.887 9.68797C171.206 9.67972 171.457 9.67982 163.558 9.68394C160.237 9.68568 157.093 9.67973 156.572 9.67074C156.053 9.66176 155.511 9.66093 155.37 9.669C155.11 9.68385 150.114 9.71309 148.579 9.70878C147.379 9.70539 146.017 9.81017 146.774 9.84766C146.888 9.85325 146.81 9.86929 146.584 9.88698C146.373 9.90348 146.163 9.92558 146.116 9.93612C145.949 9.97416 144.65 9.99543 144.28 9.96618C144.049 9.94767 143.433 9.94107 142.464 9.94657C141.659 9.95115 139.012 9.96032 136.584 9.96692C134.154 9.97352 132.001 9.98516 131.796 9.99277C131.592 10.0004 130.724 10.0082 129.867 10.0101C129.01 10.012 128.171 10.025 128.003 10.0391C127.702 10.0642 126.284 10.1054 126.047 10.096C125.754 10.0842 125.211 10.0872 124.715 10.1031C124.421 10.1126 124.043 10.1186 123.874 10.1165C123.706 10.1144 123.431 10.1109 123.263 10.1087C123.094 10.1065 122.303 10.1167 121.504 10.1314C120.705 10.146 119.754 10.1579 119.39 10.1576C119.026 10.1573 118.648 10.1667 118.549 10.1786C118.45 10.1904 118.145 10.2072 117.872 10.2159C117.465 10.2287 117.375 10.2247 117.375 10.1931C117.375 10.1591 117.248 10.1566 116.266 10.1709C115.656 10.1797 114.056 10.1893 112.711 10.1921C111.365 10.195 109.893 10.2094 109.44 10.224C108.987 10.2387 108.583 10.2507 108.542 10.2507C108.501 10.2507 108.553 10.266 108.658 10.2848C108.763 10.3035 109.081 10.3188 109.365 10.3188C109.649 10.3188 109.881 10.3231 109.881 10.3284C109.881 10.3336 109.923 10.354 109.974 10.3737C110.102 10.423 109.671 10.4206 109.331 10.3702C109.139 10.3416 109.047 10.3384 109.001 10.3589C108.966 10.3745 108.875 10.3814 108.798 10.3744C108.721 10.3673 108.658 10.3698 108.658 10.38C108.658 10.39 108.503 10.3996 108.314 10.401C108.125 10.4026 107.075 10.4154 105.982 10.4296C104.888 10.4437 102.686 10.4594 101.088 10.4644C99.4902 10.4693 98.0106 10.4791 97.8003 10.4859C97.0879 10.5091 93.1706 10.5629 91.0715 10.5783C87.1819 10.6068 84.233 10.6894 83.625 10.7869C83.4348 10.8174 83.0996 10.842 82.859 10.8432C80.8801 10.8527 78.1319 10.8833 76.9258 10.9092C76.4211 10.9201 75.5359 10.9352 74.9585 10.9428C74.3811 10.9505 73.5631 10.9665 73.1407 10.9784C72.7184 10.9903 72.3477 11 72.3171 11C72.2866 11 72.2616 10.974 72.2616 10.942ZM72.2616 10.7354C72.2616 10.7105 72.1938 10.7087 71.9614 10.7271C71.7821 10.7414 71.697 10.7648 71.7499 10.7852C71.8182 10.8117 71.8871 10.8135 72.0501 10.7935C72.1664 10.7792 72.2616 10.753 72.2616 10.7354ZM98.0298 10.3977C98.628 10.3658 98.6129 10.3653 97.3416 10.3764C94.4302 10.4017 93.5184 10.4145 93.5184 10.4302C93.5184 10.4598 97.3862 10.4319 98.0298 10.3977ZM26.9953 10.1235C26.9953 10.1185 26.8921 10.1145 26.766 10.1145C26.6398 10.1145 26.5365 10.1244 26.5365 10.1365C26.5365 10.1486 26.6398 10.1526 26.766 10.1455C26.8921 10.1382 26.9953 10.1283 26.9953 10.1235ZM38.0824 10.0464C38.1359 10.0336 38.0106 10.0237 37.7946 10.0237C37.5845 10.0237 37.3698 10.0339 37.3179 10.0464C37.2645 10.0592 37.3897 10.0691 37.6057 10.0691C37.816 10.0691 38.0305 10.0589 38.0824 10.0464ZM30.8184 9.93025C30.8184 9.90678 30.6353 9.90458 30.2957 9.92393C29.9119 9.94583 30.015 9.97306 30.4361 9.96114C30.6464 9.95518 30.8184 9.94125 30.8184 9.93025ZM117.35 9.92649C117.872 9.90495 117.943 9.8967 117.686 9.88762C117.278 9.87323 112.413 9.90358 109.805 9.93676C109.097 9.94574 114.569 9.96783 115.693 9.96041C116.239 9.95683 116.985 9.94162 117.35 9.92649ZM122.651 9.85664C122.819 9.85077 122.509 9.84674 121.963 9.84775C120.658 9.85023 120.141 9.87103 120.969 9.8879C121.305 9.89478 121.752 9.89294 121.963 9.88387C122.173 9.87479 122.483 9.8626 122.651 9.85664ZM25.058 9.86333C25.3728 9.86196 25.3708 9.86077 25.0172 9.83978C24.6003 9.81503 24.2426 9.8274 24.2426 9.86645C24.2426 9.88075 24.3512 9.88616 24.4845 9.87855C24.6175 9.87094 24.8756 9.86416 25.058 9.86333ZM124.948 9.83776C124.989 9.83171 124.717 9.82502 124.343 9.82291C123.97 9.8208 123.617 9.83052 123.558 9.84445C123.484 9.86232 123.664 9.86672 124.163 9.8593C124.554 9.85353 124.907 9.84381 124.948 9.83776ZM244.534 9.56963C244.592 9.55552 244.348 9.54791 243.892 9.54956C243.24 9.55194 243.209 9.55423 243.616 9.56963C244.285 9.59484 244.428 9.59484 244.534 9.56963ZM8.82569 9.23624C8.7153 9.22964 8.58339 9.23047 8.53258 9.23798C8.48177 9.2455 8.57208 9.25091 8.73329 9.2499C8.91145 9.2488 8.94769 9.24348 8.82569 9.23624ZM10.6321 9.20627C10.9395 9.19169 10.9545 9.18803 10.7086 9.18748C10.5404 9.18711 10.2651 9.19554 10.0969 9.20627C9.7072 9.2312 10.1092 9.2312 10.6321 9.20627ZM12.6841 9.21525C12.8172 9.20764 12.926 9.18307 12.926 9.16063C12.926 9.12585 12.8298 9.12159 12.2761 9.13186C11.5734 9.14491 11.1148 9.18363 11.663 9.18363C11.8431 9.18363 12.033 9.1938 12.0849 9.20627C12.1937 9.23248 12.343 9.23468 12.6841 9.21525ZM261.126 8.82031C261.126 8.80782 261.005 8.79776 260.859 8.79796C260.63 8.79824 260.624 8.80149 260.82 8.82031C261.109 8.84801 261.126 8.84801 261.126 8.82031ZM16.472 7.89658C16.3617 7.89002 16.2298 7.89082 16.179 7.89838C16.1281 7.90592 16.2185 7.91128 16.3796 7.91029C16.5577 7.9092 16.594 7.90383 16.472 7.89658ZM15.2199 7.83033C15.2199 7.79333 14.7946 7.78916 14.2359 7.82071C13.6276 7.85505 13.772 7.8792 14.5318 7.87023C14.9935 7.86478 15.2199 7.85164 15.2199 7.83033ZM18.0605 7.84671C17.9078 7.81003 17.3609 7.80067 17.3609 7.83475C17.3609 7.85386 17.518 7.86668 17.7523 7.86668C17.9675 7.86668 18.1061 7.85769 18.0605 7.84671ZM16.9021 7.82127C17.0727 7.80489 16.9847 7.79917 16.558 7.79891C16.2426 7.79871 15.9846 7.80878 15.9846 7.82127C15.9846 7.85019 16.6007 7.85019 16.9021 7.82127ZM271.831 5.16472C271.831 5.15224 271.762 5.14201 271.679 5.14201C271.593 5.14201 271.525 5.15224 271.525 5.16472C271.525 5.17721 271.593 5.18743 271.679 5.18743C271.762 5.18743 271.831 5.17721 271.831 5.16472ZM272.939 4.74098C272.835 4.73468 272.662 4.73468 272.558 4.74098C272.452 4.74728 272.539 4.75243 272.748 4.75243C272.959 4.75243 273.044 4.74728 272.939 4.74098ZM270.646 4.46753C270.456 4.46211 270.147 4.46211 269.958 4.46753C269.769 4.47294 269.924 4.47737 270.301 4.47737C270.68 4.47737 270.835 4.47294 270.646 4.46753ZM263.573 4.28423C263.573 4.27452 263.005 4.25444 262.311 4.23963C261.618 4.22483 260.884 4.20562 260.681 4.19697C260.454 4.1872 260.35 4.18974 260.407 4.2037C260.459 4.21605 261.106 4.23915 261.845 4.25505C262.586 4.27093 263.259 4.28717 263.343 4.29113C263.427 4.29509 263.513 4.29913 263.535 4.30012C263.555 4.3011 263.573 4.29395 263.573 4.28423ZM40.5293 4.07485C40.8024 4.05743 40.791 4.05517 40.4236 4.05375C40.1973 4.05287 39.9696 4.06236 39.9176 4.07485C39.8048 4.10196 40.1044 4.10196 40.5293 4.07485ZM262.502 3.94182C262.502 3.9311 261.812 3.91067 260.967 3.89642C259.066 3.86432 258.724 3.86367 258.919 3.89253C259.001 3.90464 259.823 3.92365 260.747 3.93476C261.671 3.94588 262.444 3.95641 262.464 3.95816C262.485 3.9599 262.502 3.95255 262.502 3.94182ZM31.9497 3.66994C31.993 3.65954 31.9282 3.65102 31.8057 3.65102C31.6833 3.65102 31.5831 3.65954 31.5831 3.66994C31.5831 3.68034 31.6479 3.68886 31.727 3.68886C31.8061 3.68886 31.9063 3.68034 31.9497 3.66994ZM52.4098 3.62794C52.2994 3.62138 52.1675 3.62218 52.1167 3.62973C52.0658 3.63727 52.1562 3.64264 52.3174 3.64165C52.4956 3.64056 52.5318 3.63518 52.4098 3.62794ZM28.6775 3.59804C28.6775 3.58555 28.557 3.57549 28.4099 3.57568C28.1812 3.57596 28.1756 3.57923 28.3717 3.59804C28.6602 3.62573 28.6775 3.62573 28.6775 3.59804ZM29.2892 3.56264C29.2892 3.55713 29.2203 3.55262 29.1362 3.55262C29.0521 3.55262 28.9833 3.56345 28.9833 3.57667C28.9833 3.5899 29.0521 3.59441 29.1362 3.58669C29.2203 3.57897 29.2892 3.56814 29.2892 3.56264ZM38.0061 3.40455C38.2163 3.39582 38.8701 3.38015 39.4588 3.36973C40.0476 3.35931 40.7702 3.33998 41.0645 3.32678C41.3589 3.31358 41.5998 3.30364 41.5998 3.30468C41.5998 3.31338 42.6473 3.2648 43.1673 3.23197C43.9562 3.18218 44.006 3.14393 43.282 3.14393C42.9082 3.14393 42.7467 3.13365 42.7467 3.10987C42.7467 3.07495 43.4312 3.06114 44.5673 3.07315C45.0623 3.07838 46.4745 3.03925 46.7978 3.01134C47.0393 2.99051 46.2675 2.967 45.2608 2.96455C44.6059 2.96294 44.0478 2.97893 43.3585 3.01904C42.8219 3.05026 42.2411 3.07597 42.0678 3.07616C41.8168 3.07644 41.7979 3.08075 41.9748 3.09736C42.097 3.10884 42.2518 3.11318 42.3189 3.10703C42.386 3.10087 42.4408 3.1055 42.4408 3.11731C42.4408 3.13763 42.1062 3.15199 40.9381 3.18175C40.6583 3.18888 40.3922 3.20909 40.3468 3.22667C40.2792 3.25279 40.2204 3.25333 40.0241 3.22966C39.8229 3.2054 39.7985 3.20651 39.8739 3.23647C39.9398 3.26264 39.8755 3.27123 39.6349 3.26845C39.454 3.26637 39.0776 3.27393 38.7984 3.28526C38.4466 3.29954 38.2238 3.29759 38.072 3.27887C37.9489 3.2637 37.8531 3.2617 37.8531 3.2743C37.8531 3.29934 36.6879 3.37099 36.2805 3.37099C36.1361 3.37099 36.018 3.38496 36.018 3.40202C36.018 3.42513 36.2231 3.43145 36.8208 3.42674C37.2623 3.42326 37.7958 3.41328 38.0061 3.40455ZM44.2969 2.5811C44.1866 2.57565 44.0236 2.58197 43.9347 2.59517C43.8213 2.61201 43.881 2.61497 44.1354 2.60509C44.3421 2.59706 44.4115 2.58678 44.2969 2.5811ZM229.012 2.49114C229.012 2.48177 228.802 2.47194 228.547 2.46929C228.281 2.46652 228.122 2.47381 228.174 2.48632C228.281 2.51193 229.012 2.51615 229.012 2.49114ZM44.7347 2.34811L45.1171 2.34635L44.7604 2.32512C44.3574 2.30115 43.6643 2.31962 43.6643 2.35434C43.6643 2.367 43.8181 2.37111 44.0084 2.36354C44.1976 2.35602 44.5245 2.34907 44.7347 2.34811ZM227.788 2.35302C227.788 2.34262 227.685 2.3341 227.558 2.3341C227.432 2.3341 227.329 2.34262 227.329 2.35302C227.329 2.36342 227.432 2.37194 227.558 2.37194C227.685 2.37194 227.788 2.36342 227.788 2.35302ZM228.428 2.35643C228.318 2.34987 228.186 2.35067 228.135 2.35822C228.084 2.36576 228.174 2.37113 228.336 2.37014C228.514 2.36906 228.55 2.36367 228.428 2.35643ZM47.3632 2.31102C47.2528 2.30445 47.1209 2.30526 47.0701 2.31281C47.0192 2.32035 47.1096 2.32572 47.2708 2.32473C47.449 2.32365 47.4852 2.31826 47.3632 2.31102ZM30.2067 2.28112C30.2067 2.26863 30.138 2.25841 30.0539 2.25841C29.9697 2.25841 29.9009 2.26863 29.9009 2.28112C29.9009 2.2936 29.9697 2.30382 30.0539 2.30382C30.138 2.30382 30.2067 2.2936 30.2067 2.28112ZM34.1828 2.22157C34.1828 2.19613 33.8957 2.21843 33.8134 2.25027C33.7329 2.28143 33.7552 2.28284 33.9499 2.25884C34.078 2.24306 34.1828 2.22629 34.1828 2.22157ZM35.7122 2.22436C35.7122 2.20562 35.6851 2.19029 35.6521 2.19029C35.6189 2.19029 35.5523 2.20562 35.5039 2.22436C35.4555 2.24308 35.4826 2.25841 35.564 2.25841C35.6455 2.25841 35.7122 2.24308 35.7122 2.22436ZM235.921 1.4482C235.811 1.44165 235.68 1.44246 235.629 1.44999C235.578 1.45754 235.669 1.46291 235.83 1.46192C236.008 1.46084 236.043 1.45546 235.921 1.4482ZM95.1176 0.988469C95.166 0.976837 95.1429 0.961574 95.0661 0.954543C94.9895 0.947503 94.8874 0.957018 94.8391 0.975673C94.744 1.01246 94.9738 1.02302 95.1176 0.988469ZM22.53 10.7332C22.4421 10.7177 22.43 10.7046 22.5035 10.7042C22.5769 10.7038 22.5082 10.6924 22.351 10.6788C21.9474 10.644 22.3049 10.6142 23.0957 10.6167C23.5087 10.6179 23.608 10.6233 23.4015 10.6333C23.1102 10.6474 22.8929 10.7052 23.1339 10.7046C23.5829 10.7034 23.9071 10.6737 23.8372 10.6402C23.7689 10.6075 23.7872 10.6078 23.9793 10.6424C24.2406 10.6895 25.4043 10.6981 25.5048 10.6538C25.5559 10.6312 25.6182 10.6314 25.807 10.6545C26.1046 10.691 26.2803 10.7796 26.0275 10.7658C25.929 10.7604 25.8707 10.7422 25.8979 10.7254C25.9325 10.704 25.8624 10.7062 25.6644 10.7328C25.4384 10.7632 25.1104 10.7699 24.0357 10.7662C23.1812 10.7633 22.6317 10.7513 22.53 10.7332ZM20.4308 10.6832C20.2271 10.6645 20.3251 10.6141 20.5651 10.6141C20.7394 10.6141 20.8927 10.6782 20.7496 10.6913C20.6862 10.6971 20.5427 10.6935 20.4308 10.6832ZM23.6663 10.5005C23.4972 10.4603 23.5149 10.4547 23.8207 10.4517C24.0107 10.4497 24.2694 10.4465 24.3956 10.4445C24.8034 10.4379 24.8802 10.4586 24.6112 10.5028C24.2713 10.5585 23.9068 10.5576 23.6663 10.5005ZM116.304 10.3316C116.304 10.3261 116.373 10.3153 116.457 10.3076C116.542 10.2998 116.61 10.3043 116.61 10.3175C116.61 10.3307 116.542 10.3416 116.457 10.3416C116.373 10.3416 116.304 10.3371 116.304 10.3316ZM118.099 10.3161C118.203 10.3005 118.326 10.2935 118.373 10.3006C118.42 10.3076 118.335 10.3202 118.184 10.3287C117.966 10.3411 117.949 10.3384 118.099 10.3161ZM36.018 10.2536C36.018 10.2426 36.1241 10.2206 36.2538 10.2045C36.4372 10.182 36.5306 10.1815 36.6731 10.2027C36.8157 10.2239 36.8057 10.2347 36.6284 10.2514C36.34 10.2784 36.018 10.2796 36.018 10.2536ZM208.673 10.0464C208.673 10.0339 208.772 10.0237 208.892 10.0237C209.014 10.0237 209.155 10.0339 209.207 10.0464C209.26 10.0589 209.16 10.0691 208.988 10.0691C208.814 10.0691 208.673 10.0589 208.673 10.0464ZM206.073 10.0223C206.073 9.99643 206.483 9.99378 206.589 10.019C206.629 10.0289 206.53 10.0385 206.368 10.0402C206.205 10.0421 206.073 10.034 206.073 10.0223ZM54.4141 9.98562C54.2765 9.93245 54.4863 9.92457 55.0147 9.96325C55.2905 9.98342 55.4473 10.0015 55.3632 10.0034C54.7187 10.0178 54.4859 10.0134 54.4141 9.98562ZM186.651 9.93291C186.651 9.92035 186.681 9.91018 186.718 9.91018C186.755 9.91018 186.828 9.92035 186.88 9.93291C186.932 9.94538 186.901 9.95555 186.812 9.95555C186.723 9.95555 186.651 9.94538 186.651 9.93291ZM184.446 9.9132C184.38 9.89743 184.368 9.87827 184.418 9.87085C184.554 9.8505 184.704 9.88038 184.631 9.91329C184.579 9.93639 184.543 9.93639 184.446 9.9132ZM185.007 9.91788C184.694 9.89908 184.79 9.86801 185.121 9.88093C185.29 9.88744 185.427 9.90183 185.427 9.91283C185.427 9.93447 185.308 9.93593 185.007 9.91788ZM258.323 9.80421C258.146 9.77808 258.211 9.75123 258.45 9.75123C258.576 9.75123 258.679 9.76653 258.679 9.78533C258.679 9.82071 258.498 9.83033 258.323 9.80421ZM68.5345 9.66515C68.4933 9.65525 68.594 9.64563 68.7581 9.64379C68.9224 9.64196 69.0168 9.65003 68.9679 9.66176C68.8595 9.68779 68.6362 9.68953 68.5345 9.66515ZM69.913 9.6261C69.9611 9.60749 70.1135 9.59154 70.2516 9.59053C70.3899 9.58962 70.8126 9.58421 71.1912 9.57852C71.6873 9.57119 71.8153 9.57477 71.6499 9.59136C71.4607 9.61024 71.4584 9.61437 71.6372 9.61464C71.7563 9.61483 71.8109 9.62133 71.7585 9.62913C71.706 9.63692 71.2497 9.647 70.7444 9.65158C69.9788 9.65855 69.8401 9.65433 69.913 9.6261ZM7.50368 9.57119C7.39058 9.54397 7.67825 9.51711 7.88195 9.53572C8.05298 9.55148 7.9407 9.59228 7.72652 9.59228C7.65234 9.59228 7.55206 9.58274 7.50368 9.57119ZM8.94993 8.98058C8.94993 8.96883 9.01798 8.95297 9.10112 8.94535C9.18781 8.93739 9.21344 8.94651 9.16122 8.96671C9.05955 9.00605 8.94993 9.01324 8.94993 8.98058ZM10.0714 8.96889C10.0714 8.95071 10.1299 8.94119 10.2013 8.94776C10.2728 8.95431 10.2917 8.96919 10.2433 8.98081C10.1196 9.01052 10.0714 9.00718 10.0714 8.96889ZM276.572 6.00482C276.446 5.99272 276.412 5.98281 276.496 5.98281C276.579 5.98281 276.751 5.99272 276.878 6.00482C277.004 6.01693 277.038 6.02683 276.954 6.02683C276.87 6.02683 276.698 6.01693 276.572 6.00482ZM25.3131 4.31978C25.3131 4.30995 25.4507 4.30191 25.6189 4.30191C25.7872 4.30191 25.9248 4.31149 25.9248 4.3232C25.9248 4.33491 25.7872 4.34296 25.6189 4.34108C25.4507 4.33919 25.3131 4.32961 25.3131 4.31978ZM31.7171 3.98633L31.3586 3.94322L32.2737 3.92518C32.777 3.91526 33.55 3.90656 33.9915 3.90585C34.433 3.90514 34.7943 3.89761 34.7944 3.88911C34.7945 3.87144 35.7054 3.90664 35.8476 3.92982C35.8992 3.93825 35.7292 3.93916 35.4697 3.93185C35.1793 3.92366 34.8267 3.93201 34.5522 3.95353C34.307 3.97278 33.7451 3.98951 33.3035 3.99072C32.862 3.99193 32.5006 4.00113 32.5006 4.01118C32.5006 4.04373 32.0849 4.03054 31.7171 3.98633ZM29.7894 3.99302C29.8401 3.98547 29.9722 3.98467 30.0825 3.99122C30.2044 3.99847 30.1682 4.00385 29.9901 4.00494C29.8288 4.00593 29.7386 4.00056 29.7894 3.99302ZM27.0074 3.6794C27.0008 3.65546 27.0369 3.64205 27.0877 3.6496C27.1385 3.65714 27.144 3.67672 27.0998 3.69311C27.051 3.71123 27.0147 3.70584 27.0074 3.6794ZM31.184 3.48856C31.2267 3.47829 31.1207 3.452 30.9487 3.43012C30.6406 3.39097 30.6508 3.38927 31.5819 3.32389C32.7033 3.24516 32.8065 3.24338 32.8065 3.30286C32.8065 3.33084 32.7038 3.34841 32.5389 3.34862C32.322 3.3489 32.3123 3.35282 32.4877 3.3693C32.6066 3.38048 32.8302 3.38602 32.9846 3.38161C33.139 3.3772 33.2653 3.38399 33.2653 3.39673C33.2653 3.40945 33.0417 3.41805 32.7682 3.41583C32.4949 3.41361 32.1337 3.41298 31.9654 3.41445C31.7107 3.41665 31.6978 3.42076 31.8889 3.4391C32.085 3.45791 32.0794 3.46116 31.8507 3.46145C31.7035 3.46166 31.5831 3.47202 31.5831 3.48452C31.5831 3.497 31.4758 3.50721 31.3447 3.50721C31.2136 3.50721 31.1412 3.49883 31.184 3.48856ZM33.1394 3.30534C32.9856 3.29123 32.9916 3.28176 33.168 3.26002C33.4155 3.22953 33.6127 3.25617 33.4423 3.29707C33.3816 3.31166 33.2479 3.3153 33.1394 3.30534ZM27.8363 2.34923C27.7844 2.33674 27.8451 2.32653 27.9713 2.32653C28.0975 2.32653 28.2432 2.33674 28.2952 2.34923C28.3471 2.36172 28.2865 2.37194 28.1602 2.37194C28.0342 2.37194 27.8883 2.36172 27.8363 2.34923ZM30.9685 2.24758C31.1887 2.20818 31.2772 2.20408 31.2772 2.23328C31.2772 2.24442 31.1643 2.25999 31.0262 2.26785C30.8164 2.2798 30.8068 2.27649 30.9685 2.24758ZM247.099 1.88116C247.28 1.85455 248.258 1.83368 248.456 1.85227C248.569 1.86297 248.594 1.87289 248.51 1.87432C247.686 1.88833 247.031 1.89151 247.099 1.88116ZM246.172 1.85314C246.045 1.84117 246.14 1.83457 246.439 1.83457C246.695 1.83457 246.904 1.84309 246.904 1.85349C246.904 1.87765 246.43 1.87745 246.172 1.85314ZM242.239 1.82416C241.585 1.8024 239.995 1.78679 237.026 1.77296C236.009 1.76822 235.031 1.75266 234.85 1.73838C234.655 1.72283 233.97 1.71492 233.144 1.71867C232.385 1.72212 231.764 1.72263 231.764 1.71978C231.764 1.71187 232.653 1.64534 232.76 1.64534C232.811 1.64534 232.81 1.65556 232.759 1.66805C232.703 1.6813 232.859 1.69076 233.131 1.69076C233.389 1.69076 233.599 1.68053 233.599 1.66805C233.599 1.65556 233.672 1.64534 233.761 1.64534C233.85 1.64534 233.872 1.65811 233.808 1.67372C233.723 1.69471 233.751 1.69612 233.914 1.67911C234.036 1.66646 234.272 1.65729 234.44 1.65873C234.609 1.66015 235.112 1.66284 235.558 1.66469C236.005 1.66654 236.338 1.67571 236.299 1.68507C236.259 1.69444 236.652 1.70061 237.169 1.69879C237.688 1.69693 238.231 1.70498 238.379 1.71661C238.557 1.73073 238.646 1.7295 238.646 1.71292C238.646 1.69925 238.73 1.6957 238.831 1.70504C238.933 1.71437 239.604 1.72479 240.322 1.7282C241.04 1.7316 241.628 1.7356 241.628 1.73708C241.628 1.73857 241.972 1.74308 242.393 1.74713C242.813 1.75117 243.174 1.75675 243.196 1.75951C243.231 1.76424 243.389 1.77112 243.655 1.77954C243.777 1.78341 243.059 1.84936 242.928 1.84628C242.886 1.84528 242.576 1.83534 242.239 1.82416ZM236.046 1.71064C236.046 1.69971 235.913 1.69076 235.75 1.69076C235.586 1.69076 235.416 1.69971 235.37 1.71064C235.324 1.72156 235.458 1.7305 235.666 1.7305C235.876 1.7305 236.046 1.72156 236.046 1.71064ZM244.226 1.64499C244.173 1.6323 244.066 1.62779 243.987 1.63498C243.91 1.64216 243.845 1.63782 243.845 1.62533C243.845 1.58137 244.092 1.58067 244.275 1.62413C244.376 1.6483 244.428 1.66807 244.392 1.66807C244.353 1.66807 244.278 1.65767 244.226 1.64499ZM240.952 1.55643C240.792 1.53249 240.628 1.51765 240.588 1.52344C240.549 1.52923 240.182 1.53739 239.773 1.54158C239.064 1.54883 238.183 1.50206 238.407 1.46894C238.585 1.44243 239.642 1.44864 239.872 1.47755C240.108 1.50715 240.539 1.50813 240.731 1.47949C240.893 1.4554 241.674 1.46068 241.782 1.48661C241.929 1.5219 241.71 1.59993 241.465 1.59993C241.345 1.59993 241.113 1.58036 240.952 1.55643ZM242.531 1.57373C242.465 1.55809 242.488 1.55366 242.587 1.56275C242.679 1.57113 242.797 1.5676 242.85 1.55491C242.993 1.52068 243.183 1.52696 243.183 1.56589C243.183 1.60588 242.689 1.61182 242.531 1.57373ZM63.7391 1.40459C63.7899 1.39704 63.9218 1.39623 64.0322 1.40279C64.1542 1.41004 64.118 1.41543 63.9399 1.41652C63.7786 1.4175 63.6883 1.41213 63.7391 1.40459ZM94.5889 0.759842C94.5889 0.747355 94.6193 0.737137 94.6564 0.737137C94.6935 0.737137 94.7663 0.747355 94.8182 0.759842C94.8702 0.77233 94.84 0.782547 94.7509 0.782547C94.6618 0.782547 94.5889 0.77233 94.5889 0.759842ZM98.1548 0.76214C97.9079 0.73521 97.967 0.696513 98.2388 0.707065C98.4123 0.713799 98.5234 0.704536 98.5395 0.682034C98.5536 0.662388 98.5764 0.630988 98.5905 0.612256C98.6045 0.593524 98.7421 0.576923 98.8964 0.575361C99.0505 0.573793 99.2283 0.570413 99.2914 0.567835C99.3544 0.565252 99.6125 0.554906 99.8649 0.544835C100.426 0.522444 100.731 0.488997 100.619 0.462099C100.573 0.451027 100.671 0.441967 100.837 0.441967C101.003 0.441967 101.174 0.454737 101.217 0.470348C101.271 0.490068 101.333 0.491293 101.421 0.47437C101.645 0.431076 102.114 0.417564 102.36 0.447255C102.559 0.471085 102.577 0.470491 102.469 0.443783C102.369 0.419293 102.402 0.415199 102.605 0.426754C102.752 0.435122 102.965 0.441965 103.079 0.441965C103.192 0.441965 103.327 0.461351 103.377 0.485046C103.436 0.512738 103.568 0.524309 103.744 0.517445C104.135 0.502289 104.094 0.446148 103.701 0.456901C103.39 0.465394 103.389 0.465084 103.688 0.444027C103.856 0.432161 104.227 0.421734 104.511 0.420856C104.796 0.419972 105.45 0.409239 105.964 0.396989C107.297 0.365246 110.649 0.309619 112.175 0.293891C112.89 0.286529 113.785 0.276454 114.164 0.271502C114.961 0.261071 116.535 0.244468 118.598 0.224727C119.397 0.217082 120.498 0.2052 121.045 0.198324C122.359 0.181797 124.428 0.180564 124.715 0.196145C124.842 0.202972 125.237 0.216402 125.595 0.225993C125.952 0.235582 126.245 0.250947 126.245 0.260135C126.245 0.269323 126.075 0.302102 125.867 0.332975C125.559 0.378674 125.346 0.388692 124.719 0.386873C124.261 0.385528 123.97 0.39396 124.001 0.407632C124.03 0.420274 124.583 0.431462 125.23 0.432489C126.247 0.434097 126.924 0.463475 126.693 0.495932C126.59 0.510456 124.562 0.524805 124.563 0.511014C124.563 0.50426 124.099 0.501932 123.531 0.505838C122.963 0.509745 122.103 0.503663 121.621 0.492295C121.138 0.480939 120.711 0.476495 120.671 0.482422C120.631 0.488343 120.303 0.495346 119.942 0.497981C119.582 0.500617 119.096 0.510665 118.864 0.520317C118.613 0.530753 118.363 0.528167 118.247 0.513933C118.14 0.500771 117.388 0.487641 116.574 0.484754C115.568 0.481183 115.127 0.471705 115.194 0.455062C115.248 0.441621 115.176 0.44469 115.033 0.461885C114.855 0.48339 114.579 0.48854 114.151 0.478379C113.743 0.468679 113.563 0.471587 113.626 0.486849C113.734 0.512863 113.714 0.513361 112.328 0.518889C111.782 0.521069 111.18 0.530888 110.99 0.540708C110.801 0.550528 110.646 0.55021 110.646 0.540004C110.646 0.529797 110.474 0.521445 110.264 0.521445C110.054 0.521445 109.882 0.529108 109.882 0.538474C109.882 0.54784 109.774 0.555504 109.643 0.555504C109.512 0.555504 109.441 0.546874 109.485 0.536322C109.591 0.510824 108.02 0.54827 107.906 0.573957C107.697 0.62098 104.835 0.668631 104.835 0.625085C104.835 0.611795 104.762 0.600914 104.673 0.600914C104.584 0.600914 104.551 0.610428 104.599 0.622053C104.737 0.655286 104.386 0.675747 104.158 0.647703C104.005 0.62889 103.934 0.630041 103.876 0.652215C103.827 0.671361 103.575 0.680106 103.17 0.676745C102.824 0.673874 102.541 0.681066 102.541 0.69273C102.541 0.730278 101.755 0.70562 101.603 0.663284C101.522 0.64077 101.389 0.62845 101.308 0.635906C101.226 0.643363 101.195 0.657905 101.238 0.668222C101.281 0.678537 101.215 0.692713 101.092 0.699719C100.969 0.706728 100.827 0.702529 100.777 0.690387C100.721 0.676927 100.525 0.681552 100.275 0.702232C99.8045 0.74115 98.3414 0.78249 98.1548 0.76214ZM95.9653 0.659009C95.9653 0.619127 96.057 0.613256 96.1881 0.644748C96.2365 0.656373 96.2062 0.672304 96.1207 0.680145C96.0351 0.687989 95.9653 0.678499 95.9653 0.659009ZM96.5415 0.619787C96.6304 0.606591 96.7933 0.600264 96.9038 0.605723C97.0182 0.611393 96.9489 0.621685 96.7421 0.629713C96.4877 0.639589 96.428 0.636633 96.5415 0.619787ZM149.222 0.562175C149.032 0.556763 148.877 0.544536 148.877 0.535005C148.877 0.507218 149.543 0.522323 149.608 0.551603C149.641 0.566231 149.645 0.576806 149.617 0.575106C149.589 0.573399 149.411 0.567588 149.222 0.562175ZM146.049 0.510081C146.469 0.48326 146.711 0.48326 146.431 0.510081C146.304 0.522188 146.098 0.531533 145.973 0.530844C145.821 0.530022 145.847 0.522949 146.049 0.510081ZM146.975 0.512195C146.928 0.500871 147.027 0.496955 147.195 0.503492C147.552 0.517357 147.598 0.532785 147.281 0.532785C147.159 0.532785 147.022 0.523518 146.975 0.512195ZM127.288 0.460812C127.047 0.424891 127.157 0.422399 129.046 0.420708C130.154 0.419705 131.215 0.414502 131.402 0.409122C131.59 0.403742 131.78 0.407917 131.823 0.418393C131.866 0.428872 132.112 0.435281 132.37 0.432634C133.065 0.425483 133.069 0.45854 132.374 0.468389C132.045 0.473047 131.809 0.468994 131.848 0.459409C131.974 0.42925 131.739 0.44044 131.499 0.47602C131.238 0.514647 130.593 0.521602 130.45 0.487313C130.387 0.472195 130.255 0.472546 130.055 0.488357C129.717 0.51526 129.398 0.496977 129.553 0.459584C129.622 0.443231 129.584 0.441677 129.442 0.454958C129.323 0.465969 128.848 0.480409 128.386 0.487045C127.724 0.49654 127.49 0.49096 127.288 0.460812ZM139.55 0.487371C139.55 0.474883 139.58 0.464667 139.617 0.464667C139.654 0.464667 139.726 0.474883 139.778 0.487371C139.83 0.499859 139.8 0.510076 139.711 0.510076C139.622 0.510076 139.55 0.499859 139.55 0.487371ZM133.433 0.44196C133.294 0.428735 133.275 0.41981 133.384 0.419601C133.485 0.419395 133.609 0.429471 133.661 0.44196C133.78 0.47015 133.726 0.47015 133.433 0.44196ZM193.163 0.438863C193.242 0.419854 192.66 0.397494 192.542 0.415015C192.377 0.439426 191.698 0.444038 191.698 0.42074C191.698 0.406329 191.262 0.402857 190.512 0.411285C189.593 0.421619 189.208 0.416293 188.792 0.387535C188.497 0.36715 188.373 0.355154 188.514 0.36088C188.656 0.366605 188.793 0.362406 188.82 0.351562C188.847 0.340714 188.971 0.328518 189.097 0.324457C189.224 0.320402 189.378 0.306861 189.439 0.294372C189.501 0.281883 189.553 0.294043 189.554 0.321408C189.556 0.368429 189.58 0.369365 189.978 0.338531C190.354 0.30927 190.42 0.309992 190.609 0.345553C190.811 0.383256 190.816 0.383252 190.729 0.345553C190.657 0.314888 190.721 0.305818 191.007 0.305818C191.21 0.305818 191.446 0.3237 191.533 0.345553C191.619 0.367604 191.69 0.372656 191.693 0.356906C191.698 0.327174 192.157 0.315938 192.157 0.345553C192.157 0.354919 192.676 0.361992 193.312 0.36127C193.948 0.360546 194.502 0.36821 194.544 0.378299C194.586 0.388386 194.768 0.396639 194.948 0.396639C195.21 0.396639 195.238 0.402317 195.084 0.425021C194.894 0.453438 193.047 0.466735 193.163 0.438863ZM195.674 0.43818C195.674 0.427773 195.725 0.418569 195.788 0.417726C195.852 0.416883 196.124 0.411916 196.392 0.406691C196.997 0.394938 197.213 0.43389 196.631 0.449804C196.055 0.465537 195.674 0.460905 195.674 0.43818ZM184.662 0.362493C184.662 0.350006 184.404 0.339789 184.089 0.339789C183.774 0.339789 183.465 0.350006 183.403 0.362493C183.328 0.377631 183.29 0.377631 183.289 0.362493C183.285 0.334047 182.369 0.327318 182.369 0.355742C182.369 0.367175 182.307 0.370789 182.23 0.363775C182.084 0.35041 180.739 0.328952 179.31 0.317202C178.848 0.313398 178.469 0.307992 178.469 0.305186C178.469 0.289968 176.457 0.289733 176.328 0.304939C176.098 0.33208 174.57 0.351015 174.57 0.326717C174.57 0.315175 174.467 0.305732 174.34 0.305732C174.214 0.305732 174.111 0.315591 174.111 0.327643C174.111 0.341324 173.034 0.345516 171.243 0.338809C169.666 0.332901 168.21 0.328173 168.007 0.328304C167.805 0.32851 167.408 0.319121 167.128 0.307612C166.821 0.295029 166.617 0.29495 166.617 0.307407C166.617 0.32804 166.083 0.324698 165.937 0.303156C165.895 0.296943 165.2 0.295491 164.391 0.299932C163.416 0.305284 162.848 0.299029 162.704 0.281378C162.537 0.260638 162.488 0.261641 162.486 0.285912C162.485 0.3056 162.443 0.308342 162.372 0.293354C162.304 0.279119 161.434 0.268507 160.195 0.266811C159.059 0.265264 155.618 0.258134 152.548 0.250993C149.478 0.243854 145.538 0.23665 143.794 0.234988C142.048 0.233342 140.619 0.225571 140.619 0.217757C140.619 0.20994 140.241 0.203545 139.778 0.203545C139.316 0.203545 138.937 0.211208 138.937 0.220574C138.937 0.22994 138.865 0.237604 138.776 0.237604C138.687 0.237604 138.656 0.227387 138.708 0.214898C138.76 0.20241 138.696 0.192193 138.565 0.192193C138.433 0.192204 138.326 0.181986 138.326 0.169499C138.326 0.15701 138.254 0.146792 138.165 0.146792C138.074 0.146792 138.045 0.15701 138.096 0.169499C138.152 0.18291 137.984 0.192063 137.686 0.191856C137.302 0.191568 137.234 0.186157 137.409 0.169499C137.578 0.153243 137.585 0.147397 137.435 0.147141C137.28 0.146853 137.287 0.138963 137.463 0.112734C137.589 0.0940023 137.835 0.0786759 138.01 0.0786759C138.184 0.0786759 138.326 0.0677694 138.326 0.0544392C138.326 0.0400628 138.458 0.0364348 138.651 0.0455218C138.87 0.0558274 138.942 0.0526141 138.871 0.0356993C138.814 0.0218712 138.807 0.0105591 138.857 0.0105591C138.907 0.0105591 138.999 0.0315727 139.064 0.0572569L139.18 0.103956L139.584 0.0568572C139.86 0.024574 140.02 0.0177883 140.093 0.0352896C140.168 0.0533908 140.237 0.0518569 140.327 0.0300143C140.431 0.00497865 141.481 -0.000634379 145.928 5.44996e-05C148.938 0.000535687 152.64 0.0074629 154.154 0.0154872C155.668 0.0235098 158.18 0.0359983 159.736 0.04324C165.354 0.069382 166.802 0.0788831 166.928 0.0904361C167.209 0.116251 168.441 0.13915 168.628 0.122028C168.743 0.111478 168.877 0.115244 168.946 0.130962C169.034 0.151247 169.102 0.149502 169.215 0.124086C169.298 0.105354 169.366 0.100246 169.368 0.112734C169.369 0.127065 170.316 0.134427 171.932 0.132696C174.486 0.129957 178.852 0.16661 178.852 0.190804C178.852 0.197819 179.385 0.202406 180.037 0.201005C181.154 0.198599 183.727 0.229672 184.183 0.251079C184.351 0.258977 184.355 0.267465 184.2 0.295169C184.044 0.323089 184.047 0.32762 184.22 0.319501C184.337 0.314014 184.626 0.303263 184.861 0.295609C185.124 0.287035 185.253 0.271056 185.199 0.253978C185.15 0.238734 185.19 0.242257 185.289 0.2618C185.432 0.290542 185.629 0.294068 186.316 0.280231C186.798 0.270502 187.28 0.27231 187.432 0.284425C187.581 0.296145 187.895 0.307123 188.131 0.308823C188.529 0.311669 188.533 0.31273 188.194 0.322238C187.908 0.330226 187.873 0.337152 188.041 0.352856C188.277 0.375076 188.078 0.377859 185.924 0.38249C185.173 0.384098 184.662 0.376017 184.662 0.362493ZM140.217 0.158275C140.168 0.139613 140.068 0.130001 139.992 0.136911C139.776 0.156723 139.833 0.192201 140.079 0.192201C140.217 0.192201 140.27 0.178883 140.217 0.158275ZM131.298 0.235891C131.454 0.192228 131.445 0.18727 131.229 0.199601C131.013 0.211903 131.003 0.206931 131.16 0.163775L131.34 0.113666L131.491 0.164288C131.666 0.222366 131.982 0.23081 132.111 0.180849C132.16 0.162117 132.144 0.14679 132.077 0.14679C132.01 0.14679 131.954 0.13134 131.954 0.112453C131.954 0.084536 132.092 0.0808363 132.693 0.0926723C133.198 0.102617 133.433 0.0991091 133.433 0.0816021C133.433 0.0673643 133.674 0.0559698 133.977 0.0559698C134.334 0.0559698 134.485 0.0645705 134.417 0.0809407C134.342 0.0986929 134.406 0.0985426 134.633 0.0804185C134.9 0.0592344 134.94 0.0607708 134.865 0.0895054C134.816 0.108525 134.715 0.124088 134.64 0.124088C134.565 0.124088 134.503 0.134305 134.503 0.146792C134.503 0.194123 134.78 0.166767 134.961 0.101382C135.175 0.0251254 135.18 0.0247062 135.564 0.0551678C135.757 0.0705346 135.816 0.0945276 135.763 0.135579C135.722 0.16776 135.748 0.191112 135.821 0.187469C135.895 0.18383 135.99 0.190833 136.032 0.203041C136.077 0.216166 135.713 0.226804 135.142 0.229082C134.259 0.232603 134.162 0.22826 134.01 0.178511C133.844 0.124869 133.279 0.101346 133.279 0.148132C133.279 0.16136 133.348 0.165936 133.43 0.158307C133.515 0.150476 133.543 0.159171 133.495 0.178238C133.443 0.197991 133.307 0.206316 133.165 0.198264C133.008 0.189309 132.961 0.193551 133.031 0.210387C133.154 0.239941 132.646 0.261763 132.055 0.252258C131.846 0.248874 131.548 0.255183 131.395 0.266282C131.144 0.284365 131.134 0.281209 131.298 0.235891ZM135.481 0.150576C135.524 0.140169 135.463 0.131655 135.344 0.131655C135.226 0.131655 135.163 0.140169 135.206 0.150576C135.25 0.160982 135.312 0.169497 135.344 0.169497C135.376 0.169497 135.438 0.160982 135.481 0.150576ZM129.237 0.240194C129.191 0.229125 129.29 0.214747 129.458 0.208238C129.661 0.200357 129.733 0.184329 129.67 0.160247C129.618 0.140358 129.641 0.124085 129.72 0.124085C129.93 0.124085 129.896 0.198256 129.672 0.231667C129.443 0.265557 129.35 0.267369 129.237 0.240194ZM130.175 0.177065C130.218 0.160414 130.273 0.14679 130.297 0.14679C130.321 0.14679 130.377 0.160414 130.419 0.177065C130.462 0.193717 130.407 0.207341 130.297 0.207341C130.187 0.207341 130.133 0.193717 130.175 0.177065ZM130.766 0.113455C130.928 0.0951207 131.213 0.0797946 131.397 0.0793969C131.762 0.0785949 131.994 0.113041 131.766 0.134013C131.687 0.141196 131.597 0.135337 131.565 0.120972C131.52 0.101356 131.425 0.101318 131.18 0.120766C130.71 0.158119 130.414 0.152919 130.766 0.113455ZM128.733 0.110367C128.783 0.102822 128.916 0.102015 129.026 0.108577C129.148 0.115824 129.111 0.121205 128.933 0.122293C128.772 0.123277 128.682 0.117911 128.733 0.110367ZM136.796 0.101378C136.6 0.0825694 136.607 0.0793164 136.835 0.0790191C136.982 0.0788134 137.102 0.088889 137.102 0.101378C137.102 0.12907 137.086 0.12907 136.796 0.101378ZM135.975 0.0667957C135.903 0.0385787 135.942 0.0366352 136.189 0.0562409C136.543 0.0844093 136.576 0.101378 136.278 0.101378C136.161 0.101378 136.025 0.0858149 135.975 0.0667957Z" fill="url(#paint0_linear_1_141)"/>
</g>
<defs>
<linearGradient id="paint0_linear_1_141" x1="5.15919e-07" y1="5.5" x2="277" y2="5.50001" gradientUnits="userSpaceOnUse">
<stop stop-color="#E49729"/>
<stop offset="1" stop-color="#A11E64"/>
</linearGradient>
<clipPath id="clip0_1_141">
<rect width="277" height="11" fill="white"/>
</clipPath>
</defs>
</svg>
