<svg width="747" height="747" viewBox="0 0 747 747" fill="none" xmlns="http://www.w3.org/2000/svg">
<rect x="325.919" y="188" width="80" height="291" rx="40" transform="rotate(50 325.919 188)" fill="url(#paint0_linear_54_6)"/>
<mask id="mask0_54_6" style="mask-type:alpha" maskUnits="userSpaceOnUse" x="119" y="204" width="242" height="217">
<rect x="325.919" y="188.04" width="80" height="291" rx="40" transform="rotate(50 325.919 188.04)" fill="url(#paint1_linear_54_6)"/>
</mask>
<g mask="url(#mask0_54_6)">
<g style="mix-blend-mode:multiply">
<ellipse cx="225.653" cy="219.603" rx="91.9957" ry="221.112" transform="rotate(47.8411 225.653 219.603)" fill="black" fill-opacity="0.05"/>
</g>
<g style="mix-blend-mode:multiply">
<ellipse cx="200.653" cy="212.603" rx="91.9957" ry="221.112" transform="rotate(47.8411 200.653 212.603)" fill="black" fill-opacity="0.05"/>
</g>
</g>
<rect x="103" y="385.323" width="80" height="291" rx="40" transform="rotate(-50 103 385.323)" fill="url(#paint2_linear_54_6)"/>
<rect x="572.638" y="190" width="80" height="397.327" rx="40" transform="rotate(31 572.638 190)" fill="url(#paint3_linear_54_6)"/>
<mask id="mask1_54_6" style="mask-type:alpha" maskUnits="userSpaceOnUse" x="382" y="204" width="245" height="353">
<rect x="572.638" y="190" width="80" height="397.327" rx="40" transform="rotate(31 572.638 190)" fill="url(#paint4_linear_54_6)"/>
</mask>
<g mask="url(#mask1_54_6)">
<g style="mix-blend-mode:multiply">
<ellipse cx="598.407" cy="423.905" rx="107.5" ry="267.431" transform="rotate(19.1836 598.407 423.905)" fill="black" fill-opacity="0.05"/>
</g>
<g style="mix-blend-mode:multiply">
<ellipse cx="623.407" cy="423.905" rx="107.5" ry="267.431" transform="rotate(19.1836 623.407 423.905)" fill="black" fill-opacity="0.05"/>
</g>
</g>
<mask id="mask2_54_6" style="mask-type:alpha" maskUnits="userSpaceOnUse" x="119" y="340" width="242" height="217">
<rect x="103" y="385.323" width="80" height="291" rx="40" transform="rotate(-50 103 385.323)" fill="url(#paint5_linear_54_6)"/>
</mask>
<g mask="url(#mask2_54_6)">
<g style="mix-blend-mode:multiply">
<ellipse cx="118.937" cy="441.014" rx="245.585" ry="85.9376" transform="rotate(41.4647 118.937 441.014)" fill="black" fill-opacity="0.05"/>
</g>
<g style="mix-blend-mode:multiply">
<ellipse cx="86.9367" cy="441.014" rx="245.585" ry="85.9376" transform="rotate(41.4647 86.9367 441.014)" fill="black" fill-opacity="0.05"/>
</g>
</g>
<defs>
<linearGradient id="paint0_linear_54_6" x1="392.601" y1="97.6414" x2="302.821" y2="690.023" gradientUnits="userSpaceOnUse">
<stop stop-color="#E49729"/>
<stop offset="1" stop-color="#A11E64"/>
</linearGradient>
<linearGradient id="paint1_linear_54_6" x1="366.145" y1="140.1" x2="377.251" y2="1074.3" gradientUnits="userSpaceOnUse">
<stop stop-color="#E49729"/>
<stop offset="1" stop-color="#A11E64"/>
</linearGradient>
<linearGradient id="paint2_linear_54_6" x1="14.1983" y1="526.413" x2="168.625" y2="266.292" gradientUnits="userSpaceOnUse">
<stop stop-color="#A11E64"/>
<stop offset="1" stop-color="#E49729"/>
</linearGradient>
<linearGradient id="paint3_linear_54_6" x1="431.111" y1="302.275" x2="664.51" y2="702.365" gradientUnits="userSpaceOnUse">
<stop stop-color="#A11E64"/>
<stop offset="1" stop-color="#E49729"/>
</linearGradient>
<linearGradient id="paint4_linear_54_6" x1="431.111" y1="302.275" x2="605.194" y2="591.997" gradientUnits="userSpaceOnUse">
<stop stop-color="#A11E64"/>
<stop offset="1" stop-color="#E49729"/>
</linearGradient>
<linearGradient id="paint5_linear_54_6" x1="14.1983" y1="526.413" x2="168.625" y2="266.292" gradientUnits="userSpaceOnUse">
<stop stop-color="#A11E64"/>
<stop offset="1" stop-color="#E49729"/>
</linearGradient>
</defs>
</svg>
